# xmcd
#
# Track frame offsets: 
#        150
#        16382
#        33447
#        52457
#        69352
#        85507
#        101270
#        119950
#        141957
#        159657
#
# Disc length: 2263 seconds
#
# Revision: 2
# Processed by: cddbd v1.5.2PL0 Copyright (c) Steve Scherf et al.
# Submitted via: ExactAudioCopy v1.3
#
DISCID=8908d50a
DTITLE=南佳孝 - 忘れられた夏
DYEAR=1976
DGENRE=Rock
TTITLE0=これで準備OK
TTITLE1=ジャングルジム・ランド
TTITLE2=ブルースでも歌って
TTITLE3=眠りの島
TTITLE4=忘れられた夏
TTITLE5=月夜の晩には
TTITLE6=椰子の木の下で
TTITLE7=静かな昼下り
TTITLE8=ひとつの別れ
TTITLE9=これで準備OK
EXTD=
EXTT0=
EXTT1=
EXTT2=
EXTT3=
EXTT4=
EXTT5=
EXTT6=
EXTT7=
EXTT8=
EXTT9=
PLAYORDER=
